<svg version="1.1" id="Layer_1" xmlns="http://www.w3.org/2000/svg" xmlns:xlink="http://www.w3.org/1999/xlink" x="0px" y="0px"
	 width="48px" height="48px" viewBox="0 0 48 48" enable-background="new 0 0 48 48" xml:space="preserve">
<g>
	<path fill="#6f6f6f" d="M29.928,12.12c1.19-0.043,2.372,0,3.573,0h0.498V6.361c-0.626-0.059-1.29-0.146-1.963-0.169
		c-1.217-0.051-2.435-0.111-3.636-0.086c-1.846-0.009-3.648,0.513-5.164,1.497c-1.698,1.134-2.833,2.861-3.146,4.791
		c-0.134,0.814-0.208,1.637-0.217,2.463c0,1.29,0,2.59,0,3.881v0.494h-5.874v6.448h5.882V41.9h7.192V25.719h5.854
		c0.313-2.14,0.601-4.248,0.91-6.48h-1.363c-1.67,0-5.454,0-5.454,0s0-3.194,0.063-4.586C27.093,12.749,28.3,12.172,29.928,12.12z"
		/>
</g>
</svg>
