<?xml version="1.0" encoding="utf-8"?>
<!-- Generator: Adobe Illustrator 16.0.0, SVG Export Plug-In . SVG Version: 6.00 Build 0)  -->
<!DOCTYPE svg PUBLIC "-//W3C//DTD SVG 1.1//EN" "http://www.w3.org/Graphics/SVG/1.1/DTD/svg11.dtd">
<svg version="1.1" id="BtcTraderLogo" xmlns="http://www.w3.org/2000/svg" xmlns:xlink="http://www.w3.org/1999/xlink" x="0px"
	 y="0px" width="111px" height="18.5px" viewBox="0 0 111 18.5" enable-background="new 0 0 111 18.5" xml:space="preserve">
<g>
	<path fill="#01404E" d="M8.876,9.877c1.345-0.436,2.365-1.535,2.365-3.622c0-2.754-3.137-3.272-3.137-3.272H4.226H3.774H1.559H0
		v0.621c0.058-0.008,0.115-0.019,0.174-0.019c0.696,0,1.26,0.575,1.313,1.304h0.072v12.093h2.667v-0.018
		c0.7,0.016,2.128,0.029,3.662-0.01c2.156-0.059,4.113-1.096,4.113-3.85C12,10.582,9.741,10.004,8.876,9.877z M4.226,3.86
		l2.243-0.001c0,0,2.085,0.417,2.085,2.629c0,2.212-1.181,3.046-2.482,3.089C5.362,9.6,4.692,9.598,4.226,9.594V3.86z M6.349,16.193
		c-0.825,0.022-1.604,0.021-2.123,0.014v-5.73H6.79c0,0,2.318,0.416,2.318,2.629C9.108,15.32,7.795,16.15,6.349,16.193z"/>
	<path fill="#01404E" d="M25,2.982h-4.555h-2.583h-2.278H14.37h-0.213v0.021c-0.654,0.1-1.156,0.643-1.156,1.303v2.182h0.647
		c0-0.011-0.001-0.021-0.001-0.033c0-1.144-0.255-2.595,1.938-2.595h2.278v13.125h2.583V3.859H25V2.982z"/>
	<path fill="#01404E" d="M53,2.982h-4.555h-2.583h-2.278H42.37h-0.213v0.021c-0.654,0.1-1.156,0.643-1.156,1.303v2.182h0.647
		c0-0.011-0.001-0.021-0.001-0.033c0-1.144-0.255-2.595,1.938-2.595h2.278v13.125h2.583V3.859H53V2.982z"/>
	<path fill="#01404E" d="M36.887,13.367h-0.776c-0.048,0-0.089,0.033-0.104,0.08c-0.485,1.547-2.02,2.563-3.991,2.557
		c-2.998-0.014-4.344-2.703-4.344-6.037c0-3.336,1.212-6.039,4.344-6.039c2.164,0,3.507,1.489,4.057,3.619h0.184V5.38
		c0-0.029-0.01-0.057-0.028-0.078c-1.179-1.424-2.887-2.321-4.788-2.321c-3.557,0-6.441,3.134-6.441,7c0,3.867,2.884,7,6.441,7
		c2.36,0,4.423-1.381,5.544-3.438C37.027,13.467,36.972,13.367,36.887,13.367z"/>
	<path fill="#01404E" d="M56.907,6.981c-0.871,0-1.621,0.501-1.968,1.224c-0.209-0.392-0.602-0.659-1.057-0.659h-0.126h-1.151H51
		V7.78c0.807,0,1.475,0.517,1.604,1.195v8.005H55.1V9.178c0.344-0.525,0.895-0.866,1.517-0.866c0.635,0.001,1.195,0.358,1.537,0.9
		L59,8.527C58.742,7.635,57.904,6.981,56.907,6.981z"/>
	<path fill="#01404E" d="M97.907,6.981c-0.871,0-1.621,0.501-1.968,1.224c-0.209-0.392-0.604-0.659-1.061-0.659h-0.128h-1.147H92
		V7.78c0.807,0,1.475,0.517,1.604,1.195v8.005H96.1V9.178c0.344-0.525,0.896-0.866,1.521-0.866c0.633,0.001,1.192,0.358,1.534,0.9
		L100,8.527C99.742,7.635,98.904,6.981,97.907,6.981z"/>
	<path fill="#01404E" d="M64.014,6.993c-2.438-0.031-3.352,1.063-3.352,2.375V9.71h1.084c0.104-1.064,0.992-1.886,2.05-1.813
		c1.022,0.072,1.793,1.018,1.793,2.094v1.219c-4.688-0.221-5.541,1.185-5.541,2.813c0,2.22,1.478,2.955,3.302,2.955
		c0.979,0,1.856-0.387,2.461-0.992c0.254,0.425,0.703,0.705,1.215,0.705h0.953v-6.166C67.979,8.576,66.639,6.992,64.014,6.993z
		 M65.585,15.086c-0.34,0.783-3.272,1.709-3.271-0.754c0-2.256,2.248-2.387,3.271-2.387V15.086z"/>
	<path fill="#01404E" d="M76.723,2.982h-0.824h-0.058H74.32v0.59c0.06-0.008,0.115-0.013,0.178-0.013
		c0.729,0,1.313,0.601,1.348,1.355v2.851c-0.604-0.618-1.354-0.987-2.166-0.987c-2.027,0-3.676,2.284-3.676,5.103
		c0,2.816,1.646,5.102,3.676,5.102c0.853,0,1.631-0.397,2.25-1.069c0.164,0.469,0.563,0.797,1.021,0.797H78V4.473
		C78,3.648,77.428,2.982,76.723,2.982z M75.841,14.908c-0.38,0.711-0.892,1.15-1.456,1.15c-1.172,0-2.121-1.873-2.121-4.187
		c0-2.312,0.949-4.185,2.121-4.185c0.564,0,1.076,0.438,1.456,1.148V14.908z"/>
	<path fill="#01404E" d="M86,6.982c-2.762,0-5,2.238-5,5c0,2.762,2.238,5,5,5c1.775,0,3.336-0.926,4.223-2.322
		c0.08-0.127-0.018-0.283-0.18-0.283h-0.277c-0.099,0-0.188,0.061-0.203,0.148c-0.148,0.914-1.309,1.625-2.715,1.625
		c-1.479,0-2.754-1.006-2.731-3.701h6.86C90.99,12.295,91,12.141,91,11.982C91,9.22,88.762,6.982,86,6.982z M87.96,11.463h-3.866
		V9.828c0-0.976,0.877-1.768,1.961-1.768c1.053,0,1.905,0.77,1.905,1.719V11.463z"/>
</g>
<g>
	<circle fill="#01404E" cx="106.5" cy="4.5" r="4.5"/>
	<path fill="#FFCD05" d="M108.214,1.519c-1.589,1.87-4.625,1.81-4.625,1.81l-0.022,1.753c1.031,0.011,1.901-0.112,2.629-0.307
		c-0.51,1.591-0.231,2.707-0.231,2.707l1.808-0.271c-0.25-1.693,0.776-3.51,1.664-4.461L108.214,1.519z"/>
</g>
</svg>
