<svg version="1.1" id="Layer_1" xmlns="http://www.w3.org/2000/svg" xmlns:xlink="http://www.w3.org/1999/xlink" x="0px" y="0px"
	 width="48px" height="48px" viewBox="0 0 48 48" enable-background="new 0 0 48 48" xml:space="preserve">
<g>
    <path fill="#6f6f6f" d="M32.73,5H15.267C9.606,5,5,9.606,5,15.267V32.73C5,38.393,9.606,43,15.267,43H32.73
        C38.393,43,43,38.393,43,32.73V15.267C43,9.606,38.393,5,32.73,5z M39.93,32.73c0,3.971-3.229,7.199-7.199,7.199H15.267
        c-3.968,0-7.197-3.229-7.197-7.199V15.267c0-3.968,3.229-7.197,7.197-7.197H32.73c3.971,0,7.199,3.229,7.199,7.197V32.73
        L39.93,32.73z"/>
    <path fill="#6f6f6f" d="M32.505,22.675c-0.272-1.823-1.102-3.474-2.405-4.775c-1.303-1.303-2.952-2.133-4.773-2.404
        c-0.831-0.124-1.671-0.124-2.5,0c-2.252,0.333-4.239,1.523-5.594,3.352c-1.356,1.828-1.92,4.075-1.585,6.327
        c0.334,2.25,1.525,4.237,3.353,5.592c1.484,1.103,3.244,1.681,5.059,1.681c0.419,0,0.843-0.033,1.267-0.094
        c2.251-0.334,4.238-1.525,5.594-3.354C32.275,27.173,32.839,24.926,32.505,22.675z M24.876,29.316
        c-1.441,0.215-2.878-0.148-4.048-1.014c-1.17-0.867-1.931-2.139-2.145-3.578c-0.214-1.44,0.146-2.878,1.014-4.047
        c0.866-1.169,2.138-1.931,3.579-2.145c0.266-0.039,0.533-0.059,0.8-0.059c0.267,0,0.533,0.02,0.8,0.059
        c2.391,0.355,4.235,2.2,4.591,4.593C29.909,26.099,27.85,28.874,24.876,29.316z"/>
    <path fill="#6f6f6f" d="M34.692,13.309c-0.287-0.286-0.683-0.449-1.087-0.449s-0.8,0.163-1.083,0.449
        c-0.288,0.287-0.451,0.681-0.451,1.085c0,0.405,0.163,0.799,0.451,1.085c0.283,0.287,0.679,0.451,1.083,0.451
        s0.8-0.164,1.087-0.451c0.283-0.286,0.449-0.681,0.449-1.085S34.976,13.595,34.692,13.309z"/>
</g>
</svg>
