<svg version="1.1" id="Layer_1" xmlns="http://www.w3.org/2000/svg" xmlns:xlink="http://www.w3.org/1999/xlink" x="0px" y="0px"
	 width="48px" height="48px" viewBox="0 0 48 48" enable-background="new 0 0 48 48" xml:space="preserve">
<path fill="#6f6f6f" d="M37,5H11c-3.313,0-6,2.687-6,6v26c0,3.313,2.687,6,6,6h26c3.313,0,6-2.687,6-6V11C43,7.687,40.313,5,37,5z
	 M36.785,14.291l-2.039,1.955c-0.176,0.134-0.264,0.354-0.228,0.572v14.366c-0.036,0.217,0.052,0.438,0.228,0.572l1.99,1.955v0.43
	H26.72v-0.43l2.063-2.004c0.203-0.203,0.203-0.262,0.203-0.572V19.524L23.25,34.092h-0.775l-6.678-14.568v9.763
	c-0.056,0.41,0.081,0.824,0.37,1.121l2.683,3.256v0.428h-7.608v-0.428l2.683-3.256c0.287-0.297,0.416-0.713,0.346-1.121V17.998
	c0.032-0.313-0.087-0.624-0.322-0.834l-2.385-2.873v-0.429h7.405l5.725,12.553l5.031-12.553h7.06V14.291z"/>
</svg>
