<svg version="1.1" id="Layer_1" xmlns="http://www.w3.org/2000/svg" xmlns:xlink="http://www.w3.org/1999/xlink" x="0px" y="0px"
	 width="48px" height="48px" viewBox="0 0 48 48" enable-background="new 0 0 48 48" xml:space="preserve">
<g>
	<path fill="#6f6f6f" d="M47.171,12.654c-0.588-2.553-2.676-4.436-5.189-4.717c-5.952-0.664-11.978-0.668-17.974-0.664
		c-5.998-0.004-12.023,0-17.976,0.664c-2.512,0.281-4.599,2.165-5.187,4.717C0.009,16.289,0,20.257,0,24
		c0,3.743,0,7.711,0.836,11.346c0.586,2.553,2.673,4.436,5.187,4.717c5.952,0.665,11.977,0.669,17.975,0.665
		c5.999,0.004,12.022,0,17.974-0.665c2.513-0.28,4.601-2.164,5.188-4.717C47.997,31.711,48,27.742,48,24
		C48,20.257,48.007,16.289,47.171,12.654z M17.806,31.45c0-5.31,0-10.563,0-15.874c5.087,2.654,10.141,5.291,15.26,7.961
		C27.962,26.185,22.906,28.806,17.806,31.45z"/>
</g>
</svg>
